HIERARCHY
ROOT Hips
{
    OFFSET   0.000000   0.000000   0.000000
    CHANNELS 6 Xposition Yposition Zposition Zrotation Xrotation Yrotation
    JOINT Chest
    {
        OFFSET   0.000000   8.007230   0.000000
        CHANNELS 3 Zrotation Xrotation Yrotation
        JOINT Chest2
        {
            OFFSET   0.000000  22.077100   0.000000
            CHANNELS 3 Zrotation Xrotation Yrotation
            JOINT Neck
            {
                OFFSET   0.000000  23.255100   0.000000
                CHANNELS 3 Zrotation Xrotation Yrotation
                JOINT Head
                {
                    OFFSET   0.000000  14.370100   1.956600
                    CHANNELS 3 Zrotation Xrotation Yrotation
                    End Site
                    {
                        OFFSET   0.000000  19.566000   0.000000
                    }
                }
            }
            JOINT LeftCollar
            {
                OFFSET   3.911900  19.017000  -0.467063
                CHANNELS 3 Zrotation Xrotation Yrotation
                JOINT LeftShoulder
                {
                    OFFSET  10.383700   0.000000   0.000000
                    CHANNELS 3 Zrotation Xrotation Yrotation
                    JOINT LeftElbow
                    {
                        OFFSET  26.662100   0.001193   0.000980
                        CHANNELS 3 Zrotation Xrotation Yrotation
                        JOINT LeftWrist
                        {
                            OFFSET  28.869000  -0.000059  -0.000082
                            CHANNELS 3 Zrotation Xrotation Yrotation
                            JOINT LeftFinger0
                            {
                                OFFSET   2.044650  -2.323450   3.252850
                                CHANNELS 3 Zrotation Xrotation Yrotation
                                JOINT LeftFinger01
                                {
                                    OFFSET   3.088130   0.000000   0.000000
                                    CHANNELS 3 Zrotation Xrotation Yrotation
                                    JOINT LeftFinger02
                                    {
                                        OFFSET   2.639460   0.000000   0.000000
                                        CHANNELS 3 Zrotation Xrotation Yrotation
                                        End Site
                                        {
                                            OFFSET   2.582190   0.000000   0.000000
                                        }
                                    }
                                }
                            }
                            JOINT LeftFinger1
                            {
                                OFFSET   8.364480   0.000000   3.252850
                                CHANNELS 3 Zrotation Xrotation Yrotation
                                JOINT LeftFinger11
                                {
                                    OFFSET   4.646930   0.000000   0.000000
                                    CHANNELS 3 Zrotation Xrotation Yrotation
                                    JOINT LeftFinger12
                                    {
                                        OFFSET   2.323470   0.000000   0.000000
                                        CHANNELS 3 Zrotation Xrotation Yrotation
                                        End Site
                                        {
                                            OFFSET   2.273050   0.000000   0.000000
                                        }
                                    }
                                }
                            }
                            JOINT LeftFinger2
                            {
                                OFFSET   8.364490   0.000016   1.078090
                                CHANNELS 3 Zrotation Xrotation Yrotation
                                JOINT LeftFinger21
                                {
                                    OFFSET   5.111610   0.000000   0.000000
                                    CHANNELS 3 Zrotation Xrotation Yrotation
                                    JOINT LeftFinger22
                                    {
                                        OFFSET   2.788150   0.000016   0.000000
                                        CHANNELS 3 Zrotation Xrotation Yrotation
                                        End Site
                                        {
                                            OFFSET   2.727660   0.000000   0.000000
                                        }
                                    }
                                }
                            }
                            JOINT LeftFinger3
                            {
                                OFFSET   7.899780   0.000015  -1.078090
                                CHANNELS 3 Zrotation Xrotation Yrotation
                                JOINT LeftFinger31
                                {
                                    OFFSET   4.646930   0.000000   0.000000
                                    CHANNELS 3 Zrotation Xrotation Yrotation
                                    JOINT LeftFinger32
                                    {
                                        OFFSET   2.323470   0.000000   0.000000
                                        CHANNELS 3 Zrotation Xrotation Yrotation
                                        End Site
                                        {
                                            OFFSET   2.273050   0.000000   0.000000
                                        }
                                    }
                                }
                            }
                            JOINT LeftFinger4
                            {
                                OFFSET   7.435090   0.000000  -3.252850
                                CHANNELS 3 Zrotation Xrotation Yrotation
                                JOINT LeftFinger41
                                {
                                    OFFSET   3.717550   0.000000   0.000000
                                    CHANNELS 3 Zrotation Xrotation Yrotation
                                    JOINT LeftFinger42
                                    {
                                        OFFSET   1.858770   0.000000   0.000000
                                        CHANNELS 3 Zrotation Xrotation Yrotation
                                        End Site
                                        {
                                            OFFSET   1.818440   0.000000   0.000000
                                        }
                                    }
                                }
                            }
                        }
                    }
                }
            }
            JOINT RightCollar
            {
                OFFSET  -3.911910  19.017000  -0.467062
                CHANNELS 3 Zrotation Xrotation Yrotation
                JOINT RightShoulder
                {
                    OFFSET -10.383700   0.000014   0.000000
                    CHANNELS 3 Zrotation Xrotation Yrotation
                    JOINT RightElbow
                    {
                        OFFSET -26.662100   0.001225   0.001091
                        CHANNELS 3 Zrotation Xrotation Yrotation
                        JOINT RightWrist
                        {
                            OFFSET -28.869000  -0.000020  -0.000085
                            CHANNELS 3 Zrotation Xrotation Yrotation
                            JOINT RightFinger0
                            {
                                OFFSET  -2.044650  -2.323490   3.252850
                                CHANNELS 3 Zrotation Xrotation Yrotation
                                JOINT RightFinger01
                                {
                                    OFFSET  -3.088130   0.000000   0.000000
                                    CHANNELS 3 Zrotation Xrotation Yrotation
                                    JOINT RightFinger02
                                    {
                                        OFFSET  -2.639460   0.000000   0.000000
                                        CHANNELS 3 Zrotation Xrotation Yrotation
                                        End Site
                                        {
                                            OFFSET  -2.582190   0.000000   0.000000
                                        }
                                    }
                                }
                            }
                            JOINT RightFinger1
                            {
                                OFFSET  -8.364480   0.000000   3.252850
                                CHANNELS 3 Zrotation Xrotation Yrotation
                                JOINT RightFinger11
                                {
                                    OFFSET  -4.646930   0.000000   0.000000
                                    CHANNELS 3 Zrotation Xrotation Yrotation
                                    JOINT RightFinger12
                                    {
                                        OFFSET  -2.323470   0.000000   0.000000
                                        CHANNELS 3 Zrotation Xrotation Yrotation
                                        End Site
                                        {
                                            OFFSET  -2.273050   0.000000   0.000000
                                        }
                                    }
                                }
                            }
                            JOINT RightFinger2
                            {
                                OFFSET  -8.364480   0.000000   1.078090
                                CHANNELS 3 Zrotation Xrotation Yrotation
                                JOINT RightFinger21
                                {
                                    OFFSET  -5.111620   0.000000   0.000000
                                    CHANNELS 3 Zrotation Xrotation Yrotation
                                    JOINT RightFinger22
                                    {
                                        OFFSET  -2.788160   0.000000   0.000000
                                        CHANNELS 3 Zrotation Xrotation Yrotation
                                        End Site
                                        {
                                            OFFSET  -2.727660   0.000000   0.000000
                                        }
                                    }
                                }
                            }
                            JOINT RightFinger3
                            {
                                OFFSET  -7.899780   0.000000  -1.078090
                                CHANNELS 3 Zrotation Xrotation Yrotation
                                JOINT RightFinger31
                                {
                                    OFFSET  -4.646930   0.000000   0.000000
                                    CHANNELS 3 Zrotation Xrotation Yrotation
                                    JOINT RightFinger32
                                    {
                                        OFFSET  -2.323470   0.000000   0.000000
                                        CHANNELS 3 Zrotation Xrotation Yrotation
                                        End Site
                                        {
                                            OFFSET  -2.273050   0.000000   0.000000
                                        }
                                    }
                                }
                            }
                            JOINT RightFinger4
                            {
                                OFFSET  -7.435090   0.000000  -3.252850
                                CHANNELS 3 Zrotation Xrotation Yrotation
                                JOINT RightFinger41
                                {
                                    OFFSET  -3.717550   0.000000   0.000000
                                    CHANNELS 3 Zrotation Xrotation Yrotation
                                    JOINT RightFinger42
                                    {
                                        OFFSET  -1.858760   0.000000   0.000000
                                        CHANNELS 3 Zrotation Xrotation Yrotation
                                        End Site
                                        {
                                            OFFSET  -1.818440   0.000000   0.000000
                                        }
                                    }
                                }
                            }
                        }
                    }
                }
            }
        }
    }
    JOINT LeftHip
    {
        OFFSET   9.783030   0.000000   0.000000
        CHANNELS 3 Zrotation Xrotation Yrotation
        JOINT LeftKnee
        {
            OFFSET   0.000063 -41.789100   0.000608
            CHANNELS 3 Zrotation Xrotation Yrotation
            JOINT LeftAnkle
            {
                OFFSET   0.000048 -41.133200  -0.000184
                CHANNELS 3 Zrotation Xrotation Yrotation
                JOINT LeftToe
                {
                    OFFSET   0.000000  -6.358960  14.674500
                    CHANNELS 3 Zrotation Xrotation Yrotation
                    End Site
                    {
                        OFFSET   0.000000   0.000000   3.913200
                    }
                }
            }
        }
    }
    JOINT RightHip
    {
        OFFSET  -9.783030   0.000000   0.000000
        CHANNELS 3 Zrotation Xrotation Yrotation
        JOINT RightKnee
        {
            OFFSET   0.000071 -41.789100   0.001239
            CHANNELS 3 Zrotation Xrotation Yrotation
            JOINT RightAnkle
            {
                OFFSET   0.000037 -41.133200  -0.000166
                CHANNELS 3 Zrotation Xrotation Yrotation
                JOINT RightToe
                {
                    OFFSET   0.000000  -6.358960  14.674500
                    CHANNELS 3 Zrotation Xrotation Yrotation
                    End Site
                    {
                        OFFSET   0.000000   0.000000   3.913200
                    }
                }
            }
        }
    }
}
MOTION
Frames: 5
Frame Time:   0.016667
 -1.144640  89.540500   0.348446  -6.924250 -15.052400  -9.689900   1.463000   9.626210   0.398541   2.920270  19.259500   0.555507   2.091800   5.957920  -0.217229   3.541270  12.032700  -4.830680  -2.606580   0.679893  -1.232480 -68.604300  23.814300  -9.411700  -2.568500  -7.410790 -19.682200  16.201400 -17.597000   6.559480  42.826300  31.756500 -64.414400 -24.036000   0.091342   0.040807  -7.018020   0.045562  -0.003103 -24.398400   4.238990  -9.255700 -20.243200   0.124910   0.056055 -14.170300   0.082139   0.049599 -27.146200   0.094753  -0.184812 -27.600100   0.022278   0.050720 -18.381600  -0.001193   0.037052 -27.047600   0.094427  -0.184984 -27.191700   0.050020   0.040517 -18.109700   0.028858   0.032180 -27.093900   0.094583  -0.184924 -40.641200   0.193591   0.105506 -27.067000   0.113555   0.093309   6.582870   0.224696   7.824820  43.583100   6.979580  40.528100 -40.818500 -24.933000  61.391600  50.063300  26.891600 -12.593400 -31.478800  32.785500  70.226000  46.460500   0.009800  -0.010254  20.990900   0.011558  -0.008834  44.786700   5.009980   5.135620  36.839700  -0.017096   0.025577  26.796400   0.001961   0.029158  53.372900  -3.424740  -2.478010  54.384200   0.004504   0.019777  40.581400   0.018768   0.017287  61.107200  -6.005140  -3.269600  61.279400   0.014884   0.034109  45.959600   0.026186   0.009600  78.142900  -9.800130  -2.015160 110.000000   0.008917   0.000835  78.422300  -0.000238  -0.033179   4.177410  19.471600   4.589420   1.013490   0.000997  10.313300  -1.539820  -4.512460   4.567880  -0.000000   0.000000   0.000000   5.154430  15.178400  -7.208160  -1.183250   3.715590  -5.209650  -0.374732  -3.683140   3.099800   0.000000   0.000000   0.000000
 -1.145030  89.540500   0.346798  -6.917290 -15.071000  -9.694410   1.465550   9.629490   0.356532   2.931630  19.265300   0.469352   2.061660   5.965440  -0.215572   3.490590  12.049500  -4.770640  -2.606490   0.679047  -1.254040 -68.623800  23.757300  -9.378680  -2.553160  -7.337480 -19.671700  16.205400 -17.592800   6.597520  42.789000  31.786100 -64.438500 -24.123300   0.070168   0.031418  -7.061660   0.034932  -0.003103 -24.432000   4.212480  -9.184850 -20.267500   0.115060   0.048122 -14.187200   0.075693   0.043657 -27.155600   0.060448  -0.117891 -27.640000   0.024218   0.041418 -18.408100  -0.000139   0.031770 -27.054700   0.060240  -0.118012 -27.225000   0.048134   0.031765 -18.131900   0.028002   0.026504 -27.116500   0.060363  -0.117939 -40.674900   0.176402   0.092055 -27.089400   0.103193   0.083274   6.593770   0.222171   7.776230  43.958400   6.781280  40.538000 -41.356300 -24.530900  60.760400  45.213600  29.586500 -13.762200 -31.699300  33.546500  70.686100  46.498900   0.009170  -0.008470  21.068100   0.010792  -0.007708  43.756600   5.375130   5.650570  36.016500  -0.004467   0.010418  26.009300   0.001908   0.011322  51.494100  -3.472160  -2.746160  54.278500   0.004172   0.008798  40.055100   0.008263   0.004329  60.149300  -6.044340  -3.451510  60.331600   0.004927   0.004582  45.248800   0.006530   0.001069  77.287600  -9.761870  -2.189700 110.000000   0.008992   0.000821  77.556300  -0.000306  -0.004600   4.174840  19.480900   4.601290   1.010370   0.021130  10.315500  -1.541240  -4.521100   4.562190   0.000000   0.000000  -0.000000   5.151720  15.199000  -7.186560  -1.186920   3.739540  -5.200820  -0.379244  -3.710690   3.060020   0.000000   0.000000   0.000000
 -1.145480  89.540200   0.343965  -6.919720 -15.084800  -9.720570   1.470440   9.637450   0.323194   2.948930  19.280000   0.399903   2.032970   5.978070  -0.213372   3.442780  12.076700  -4.714390  -2.607190   0.673156  -1.299880 -68.640300  23.724800  -9.349560  -2.565170  -7.301920 -19.622900  16.173600 -17.571400   6.619500  42.751800  31.809200 -64.466500 -24.198500   0.040048   0.018056  -7.099240   0.019866  -0.003102 -24.453700   4.188360  -9.124130 -20.281200   0.090199   0.033156 -14.196800   0.059376   0.031610 -27.161400   0.032602  -0.063570 -27.664500   0.026157   0.028505 -18.424500   0.001612   0.023781 -27.057900   0.032485  -0.063636 -27.241400   0.042954   0.018686 -18.142800   0.025668   0.017560 -27.127900   0.032554  -0.063556 -40.691900   0.135523   0.065508 -27.100800   0.078891   0.061791   6.617240   0.204335   7.732940  44.324200   6.545500  40.612700 -41.670100 -23.934000  59.974100  39.167000  32.254100 -14.283400 -32.035800  34.589500  71.343900  46.537400   0.004757  -0.004917  21.145300   0.005425  -0.003052  43.254500   5.773990   6.136450  35.651600   0.004736  -0.004948  25.669900   0.001699  -0.006173  50.491900  -3.478860  -2.886410  54.219600   0.003028  -0.000265  39.879700  -0.002821  -0.004472  59.747900  -6.054620  -3.534900  59.934400  -0.007426  -0.015905  44.950900  -0.012498  -0.004371  76.957900  -9.743640  -2.265680 110.000000   0.009069   0.000807  77.059500  -0.000386   0.022498   4.173130  19.492800   4.607760   1.007230   0.041260  10.331000  -1.542920  -4.534760   4.561460  -0.000000   0.000000   0.000000   5.148720  15.211500  -7.167600  -1.192660   3.763870  -5.174100  -0.381693  -3.731870   3.046470   0.000000   0.000000  -0.000000
 -1.145890  89.536100   0.340879  -6.946250 -15.095200  -9.810500   1.482770   9.650220   0.303235   2.979260  19.305100   0.355512   2.010570   5.990960  -0.212302   3.406420  12.103500  -4.680960  -2.615740   0.640367  -1.361460 -68.658200  23.727300  -9.336230  -2.603430  -7.315420 -19.508200  16.076500 -17.492800   6.616070  42.734400  31.830400 -64.501400 -24.229400   0.025440   0.011549  -7.114650   0.012747  -0.003103 -24.448100   4.173000  -9.097090 -20.274200   0.040759   0.012958 -14.192000   0.026340   0.013127 -27.160100   0.021083  -0.041044 -27.659300   0.021896   0.019793 -18.421000   0.003348   0.017380 -27.057600   0.020994  -0.041021 -27.206600   0.027982   0.010380 -18.119600   0.016665   0.010167 -27.114800   0.021008  -0.040937 -40.672400   0.057952   0.026579 -27.087800   0.033592   0.026062   6.653660   0.120061   7.692430  44.752800   6.203880  40.765800 -42.194200 -23.056800  59.051000  32.151100  34.899800 -13.646300 -32.627100  36.010000  72.385700  46.471000  -0.015165  -0.000419  21.100500  -0.015957   0.007961  43.287500   6.473920   6.844110  35.747900   0.004495  -0.013860  25.733400  -0.000930  -0.014568  51.035600  -3.479490  -2.841980  53.956800  -0.007417  -0.006524  39.894300  -0.013616  -0.002023  60.104500  -6.042240  -3.481190  60.286500  -0.022289  -0.015355  45.214900  -0.021669   0.002204  77.400300  -9.770500  -2.200700 110.000000   0.009148   0.000789  77.729900  -0.000457   0.020238   4.172280  19.533400   4.608620   1.006230   0.030615  10.374900  -1.540700  -4.540240   4.598300  -0.000000   0.000000  -0.000000   5.152840  15.215300  -7.156240  -1.205470   3.794890  -5.127670  -0.380225  -3.749990   3.074850  -0.000000   0.000000  -0.000000
 -1.147400  89.529500   0.338977  -6.988720 -15.096200  -9.955540   1.501140   9.663750   0.296088   3.016710  19.332000   0.338293   1.999640   5.998750  -0.211495   3.387210  12.119500  -4.658960  -2.629400   0.594976  -1.426630 -68.681200  23.739900  -9.332800  -2.652080  -7.338720 -19.358600  15.958700 -17.366700   6.607580  42.745300  31.849400 -64.533500 -24.235300   0.019778   0.009016  -7.117620   0.010065  -0.003104 -24.422100   4.166690  -9.090670 -20.253000   0.004815  -0.000207 -14.177100   0.003175   0.000750 -27.154100   0.019030  -0.036994 -27.634500   0.011457   0.009720 -18.404600   0.004388   0.008955 -27.055200   0.018939  -0.036914 -27.137800   0.013650   0.005902 -18.073800   0.007858   0.006040 -27.077600   0.018919  -0.036830 -40.616700   0.004071   0.000745 -27.050700   0.002033   0.001726   6.697810   0.000000   7.671140  45.094900   5.863530  40.962700 -42.702200 -22.116000  58.080400  24.080800  36.512600 -11.717800 -33.431900  37.605900  73.724000  46.307300  -0.038984   0.003899  20.942500  -0.040138   0.019399  43.644400   7.252580   7.537260  36.096700   0.002807  -0.018640  26.062200  -0.006245  -0.017171  52.148700  -3.479900  -2.725650  53.770600  -0.022902  -0.009166  39.996500  -0.021117   0.004121  60.928700  -6.007620  -3.351820  61.100700  -0.035782  -0.011511  45.825500  -0.024504   0.013756  78.386100  -9.821740  -2.044120 110.000000   0.009230   0.000769  78.787200  -0.000530   0.014955   4.170830  19.576900   4.607800   1.005220   0.019971  10.443000  -1.536670  -4.552150   4.672860  -0.000000   0.000000   0.000000   5.162150  15.215900  -7.151960  -1.220640   3.822220  -5.067040  -0.376170  -3.758520   3.142870  -0.000000   0.000000  -0.000000
